<?xml version="1.0" encoding="UTF-8"?>
<svg id="Layer_2" data-name="Layer 2" xmlns="http://www.w3.org/2000/svg" viewBox="0 0 140.38 141.9">
  <defs>
    <style>
      .cls-1 {
        stroke-width: 0px;
      }
    </style>
  </defs>
  <g id="Layer_1-2" data-name="Layer 1">
    <path id="Route" class="cls-1" d="M119.78,48.08h11.92c4.88,0,8.67-4.1,8.67-9.38v-12.9c0-5.28-3.79-9.38-8.67-9.38h-11.92c-4.88,0-8.67,4.1-8.67,9.38h-44.99c-6.5-7.62-15.18-11.73-24.39-11.73h-4.88C34.69,5.86,27.64,0,18.97,0,8.67,0,0,9.38,0,21.11s8.67,20.52,18.97,20.52c5.42,0,10.84-2.93,14.09-7.04,3.25,3.52,5.42,8.8,5.42,14.07v2.35c0,16.42,10.84,30.49,24.93,34.01v9.97c0,20.52,15.72,37.53,34.69,37.53h13.01c0,5.28,3.79,9.38,8.67,9.38h11.92c4.88,0,8.67-4.1,8.67-9.38v-12.9c0-5.28-3.79-9.38-8.67-9.38h-11.92c-4.88,0-8.67,4.1-8.67,9.38h-13.01c-11.92,0-22.22-10.55-22.22-24.04v-9.38h34.69c0,5.28,3.79,9.38,8.67,9.38h11.92c4.88,0,8.67-4.1,8.67-9.38v-12.9c0-5.28-3.79-9.38-8.67-9.38h-11.92c-4.88,0-8.67,4.1-8.67,9.38h-34.69v-20.52c0-4.69-.54-8.8-2.17-12.9h36.86c.54,4.1,4.34,8.21,9.21,8.21ZM50.95,51.01v-2.35c0-7.62-2.71-15.25-6.5-20.52,10.84,1.76,18.97,11.73,18.97,23.45v18.76c-7.05-2.93-12.47-10.55-12.47-19.35Z"/>
  </g>
</svg>
