<?xml version="1.0" encoding="UTF-8"?>
<svg id="Layer_2" data-name="Layer 2" xmlns="http://www.w3.org/2000/svg" viewBox="0 0 169.21 100">
  <defs>
    <style>
      .cls-1 {
        stroke-width: 0px;
      }
    </style>
  </defs>
  <g id="Layer_1-2" data-name="Layer 1">
    <path id="OutletConnected" class="cls-1" d="M15,50c0,19.3,15.71,35,35,35h26.91v15h-26.91C22.39,100,0,77.62,0,50S22.39,0,50,0h26.91v15h-26.91c-19.29,0-35,15.7-35,35ZM67.85,61.84c-3.68,4.89-9.5,7.88-15.8,7.88-10.92,0-19.8-8.88-19.8-19.79s8.88-19.79,19.8-19.79c6.29,0,12.11,2.98,15.79,7.87.91,1.2,1.69,2.52,2.31,3.94l5.49-2.42c-.23-.52-.47-1.02-.73-1.52-4.41-8.48-13.21-13.87-22.86-13.87-14.23,0-25.8,11.57-25.8,25.79s11.57,25.79,25.8,25.79c9.66,0,18.46-5.4,22.87-13.88.26-.49.5-.99.72-1.5l-5.49-2.42c-.62,1.41-1.4,2.72-2.3,3.92ZM119.21,0h-26.91v15h26.91c19.29,0,35,15.7,35,35s-15.71,35-35,35h-26.91v15h26.91c27.61,0,50-22.38,50-50S146.82,0,119.21,0ZM117.16,24.14c-9.66,0-18.46,5.39-22.87,13.87-.26.5-.5,1-.73,1.52l5.49,2.42c.62-1.42,1.4-2.74,2.31-3.94,3.69-4.89,9.51-7.87,15.8-7.87,10.92,0,19.8,8.87,19.8,19.79s-8.88,19.79-19.8,19.79c-6.3,0-12.12-2.99-15.81-7.88-.9-1.2-1.68-2.51-2.3-3.92l-5.49,2.42c.23.51.47,1.01.72,1.5,4.42,8.48,13.22,13.88,22.88,13.88,14.22,0,25.8-11.57,25.8-25.79s-11.58-25.79-25.8-25.79ZM50.95,61.84v-23.83h16.89c-3.68-4.89-9.5-7.87-15.79-7.87-10.92,0-19.8,8.87-19.8,19.79s8.88,19.79,19.8,19.79c6.3,0,12.12-2.99,15.8-7.88h-16.9ZM117.16,30.14c-6.29,0-12.11,2.98-15.8,7.87h12.72v23.83h-12.73c3.69,4.89,9.51,7.88,15.81,7.88,10.92,0,19.8-8.88,19.8-19.79s-8.88-19.79-19.8-19.79ZM101.36,38.01c-.91,1.2-1.69,2.52-2.31,3.94l-5.49-2.42c.23-.52.47-1.02.73-1.52h-19.38c.26.5.5,1,.73,1.52l-5.49,2.42c-.62-1.42-1.4-2.74-2.31-3.94h-16.89v23.83h16.9c.9-1.2,1.68-2.51,2.3-3.92l5.49,2.42c-.22.51-.46,1.01-.72,1.5h19.36c-.25-.49-.49-.99-.72-1.5l5.49-2.42c.62,1.41,1.4,2.72,2.3,3.92h12.73v-23.83h-12.72ZM67.85,61.84h7.07c.26-.49.5-.99.72-1.5l-5.49-2.42c-.62,1.41-1.4,2.72-2.3,3.92ZM67.84,38.01c.91,1.2,1.69,2.52,2.31,3.94l5.49-2.42c-.23-.52-.47-1.02-.73-1.52h-7.07ZM93.56,60.34c.23.51.47,1.01.72,1.5h7.07c-.9-1.2-1.68-2.51-2.3-3.92l-5.49,2.42ZM101.36,38.01h-7.07c-.26.5-.5,1-.73,1.52l5.49,2.42c.62-1.42,1.4-2.74,2.31-3.94Z"/>
  </g>
</svg>
