<svg xmlns="http://www.w3.org/2000/svg" viewBox="0 0 24 24" fill="currentColor">
  <!-- Sun Core -->
  <circle cx="16" cy="7.5" r="2.5" />

  <!-- Sun Rays as baked Paths (No transforms for FontForge compatibility) -->
  <!-- 0° East -->
  <path d="M 19.75 7 h 2 c 0.28 0 0.5 0.22 0.5 0.5 s -0.22 0.5 -0.5 0.5 h -2 c -0.28 0 -0.5 -0.22 -0.5 -0.5 s 0.22 -0.5 0.5 -0.5 Z" />
  <!-- 45° Southeast -->
  <path d="M 18.65 10.15 l 1.41 1.41 c 0.2 0.2 0.2 0.5 0 0.7 c -0.2 0.2 -0.5 0.2 -0.7 0 l -1.41 -1.41 c -0.2 -0.2 -0.2 -0.5 0 -0.7 c 0.2 -0.2 0.5 -0.2 0.7 0 Z" />
  <!-- 90° South -->
  <path d="M 15.5 11.25 v 2 c 0 0.28 0.22 0.5 0.5 0.5 s 0.5 -0.22 0.5 -0.5 v -2 c 0 -0.28 -0.22 -0.5 -0.5 -0.5 s -0.5 0.22 -0.5 0.5 Z" />
  <!-- 135° Southwest -->
  <path d="M 13.35 10.15 l -1.41 1.41 c -0.2 0.2 -0.5 0.2 -0.7 0 c -0.2 -0.2 -0.2 -0.5 0 -0.7 l 1.41 -1.41 c 0.2 -0.2 0.5 -0.2 0.7 0 c 0.2 0.2 0.2 0.5 0 0.7 Z" />
  <!-- 180° West -->
  <path d="M 10.25 7 h 2 c 0.28 0 0.5 0.22 0.5 0.5 s -0.22 0.5 -0.5 0.5 h -2 c -0.28 0 -0.5 -0.22 -0.5 -0.5 s 0.22 -0.5 0.5 -0.5 Z" />
  <!-- 225° Northwest -->
  <path d="M 13.35 4.85 l -1.41 -1.41 c -0.2 -0.2 -0.2 -0.5 0 -0.7 c 0.2 -0.2 0.5 -0.2 0.7 0 l 1.41 1.41 c 0.2 0.2 0.2 0.5 0 0.7 c -0.2 0.2 -0.5 0.2 -0.7 0 Z" />
  <!-- 270° North -->
  <path d="M 15.5 1.75 v 2 c 0 0.28 0.22 0.5 0.5 0.5 s 0.5 -0.22 0.5 -0.5 v -2 c 0 -0.28 -0.22 -0.5 -0.5 -0.5 s -0.5 0.22 -0.5 0.5 Z" />
  <!-- 315° Northeast -->
  <path d="M 18.65 4.85 l 1.41 -1.41 c 0.2 -0.2 0.5 -0.2 0.7 0 c 0.2 0.2 0.2 0.5 0 0.7 l -1.41 1.41 c -0.2 0.2 -0.5 0.2 -0.7 0 c -0.2 -0.2 -0.2 -0.5 0 -0.7 Z" />

  <!-- Mountain range with equal 2dp margins on Left, Right, and Bottom -->
  <path d="M 2 22 V 16 L 7 11 L 11 18 L 16 14 L 19 20 L 22 17 V 22 Z" />
</svg>
